<svg width="262" height="26" viewBox="0 0 262 26" fill="none" xmlns="http://www.w3.org/2000/svg">
    <path d="M8.715 25C8.45833 25 8.24833 24.9183 8.085 24.755C7.92167 24.5917 7.84 24.3817 7.84 24.125V5.995H1.61C1.35333 5.995 1.14333 5.91333 0.98 5.75C0.816667 5.56333 0.735 5.35333 0.735 5.12V1.375C0.735 1.11833 0.816667 0.908332 0.98 0.744999C1.14333 0.581665 1.35333 0.499998 1.61 0.499998H20.44C20.6967 0.499998 20.9067 0.581665 21.07 0.744999C21.2333 0.908332 21.315 1.11833 21.315 1.375V5.12C21.315 5.35333 21.2333 5.56333 21.07 5.75C20.9067 5.91333 20.6967 5.995 20.44 5.995H14.21V24.125C14.21 24.3817 14.1283 24.5917 13.965 24.755C13.8017 24.9183 13.5917 25 13.335 25H8.715ZM23.6209 25C23.3642 25 23.1542 24.9183 22.9909 24.755C22.8276 24.5917 22.7459 24.3817 22.7459 24.125V1.375C22.7459 1.11833 22.8276 0.908332 22.9909 0.744999C23.1542 0.581665 23.3642 0.499998 23.6209 0.499998H33.1409C36.1509 0.499998 38.5192 1.2 40.2459 2.6C41.9959 3.97667 42.8709 5.93667 42.8709 8.48C42.8709 10.1367 42.4626 11.5367 41.6459 12.68C40.8526 13.8233 39.8026 14.6867 38.4959 15.27L43.3259 23.88C43.3959 24.02 43.4309 24.1483 43.4309 24.265C43.4309 24.4517 43.3492 24.6267 43.1859 24.79C43.0459 24.93 42.8709 25 42.6609 25H38.0409C37.5976 25 37.2709 24.895 37.0609 24.685C36.8509 24.4517 36.6992 24.2417 36.6059 24.055L32.6159 16.355H29.0109V24.125C29.0109 24.3817 28.9292 24.5917 28.7659 24.755C28.6026 24.9183 28.3926 25 28.1359 25H23.6209ZM29.0109 11.42H33.0709C34.1676 11.42 34.9842 11.1517 35.5209 10.615C36.0809 10.0783 36.3609 9.34333 36.3609 8.41C36.3609 7.5 36.0926 6.765 35.5559 6.205C35.0426 5.645 34.2142 5.365 33.0709 5.365H29.0109V11.42ZM43.7951 25C43.6085 25 43.4335 24.93 43.2701 24.79C43.1301 24.6267 43.0601 24.4517 43.0601 24.265C43.0601 24.1483 43.0718 24.0433 43.0951 23.95L51.3201 1.48C51.3901 1.22333 51.5301 1.00167 51.7401 0.814998C51.9735 0.604998 52.2885 0.499998 52.6851 0.499998H57.8651C58.2618 0.499998 58.5651 0.604998 58.7751 0.814998C59.0085 1.00167 59.1601 1.22333 59.2301 1.48L67.4201 23.95C67.4668 24.0433 67.4901 24.1483 67.4901 24.265C67.4901 24.4517 67.4085 24.6267 67.2451 24.79C67.1051 24.93 66.9301 25 66.7201 25H62.4151C62.0651 25 61.7968 24.9183 61.6101 24.755C61.4468 24.5683 61.3418 24.405 61.2951 24.265L59.9301 20.695H50.5851L49.2551 24.265C49.2085 24.405 49.1035 24.5683 48.9401 24.755C48.7768 24.9183 48.4968 25 48.1001 25H43.7951ZM52.0201 15.655H58.5301L55.2401 6.415L52.0201 15.655ZM69.3738 25C69.1172 25 68.9072 24.9183 68.7438 24.755C68.5805 24.5917 68.4988 24.3817 68.4988 24.125V1.375C68.4988 1.11833 68.5805 0.908332 68.7438 0.744999C68.9072 0.581665 69.1172 0.499998 69.3738 0.499998H85.4388C85.6955 0.499998 85.9055 0.581665 86.0688 0.744999C86.2555 0.908332 86.3488 1.11833 86.3488 1.375V4.91C86.3488 5.16667 86.2555 5.37667 86.0688 5.54C85.9055 5.70333 85.6955 5.785 85.4388 5.785H74.6588V10.93H84.7388C84.9955 10.93 85.2055 11.0233 85.3688 11.21C85.5555 11.3733 85.6488 11.5833 85.6488 11.84V15.34C85.6488 15.5733 85.5555 15.7833 85.3688 15.97C85.2055 16.1333 84.9955 16.215 84.7388 16.215H74.6588V24.125C74.6588 24.3817 74.5772 24.5917 74.4138 24.755C74.2505 24.9183 74.0405 25 73.7838 25H69.3738ZM89.2254 25C88.9687 25 88.7587 24.9183 88.5954 24.755C88.4321 24.5917 88.3504 24.3817 88.3504 24.125V1.375C88.3504 1.11833 88.4321 0.908332 88.5954 0.744999C88.7587 0.581665 88.9687 0.499998 89.2254 0.499998H105.29C105.547 0.499998 105.757 0.581665 105.92 0.744999C106.107 0.908332 106.2 1.11833 106.2 1.375V4.91C106.2 5.16667 106.107 5.37667 105.92 5.54C105.757 5.70333 105.547 5.785 105.29 5.785H94.5104V10.93H104.59C104.847 10.93 105.057 11.0233 105.22 11.21C105.407 11.3733 105.5 11.5833 105.5 11.84V15.34C105.5 15.5733 105.407 15.7833 105.22 15.97C105.057 16.1333 104.847 16.215 104.59 16.215H94.5104V24.125C94.5104 24.3817 94.4287 24.5917 94.2654 24.755C94.1021 24.9183 93.8921 25 93.6354 25H89.2254ZM109.077 25C108.82 25 108.61 24.9183 108.447 24.755C108.284 24.5917 108.202 24.3817 108.202 24.125V1.375C108.202 1.11833 108.284 0.908332 108.447 0.744999C108.61 0.581665 108.82 0.499998 109.077 0.499998H113.767C114.024 0.499998 114.234 0.581665 114.397 0.744999C114.56 0.908332 114.642 1.11833 114.642 1.375V24.125C114.642 24.3817 114.56 24.5917 114.397 24.755C114.234 24.9183 114.024 25 113.767 25H109.077ZM127.845 25.35C125.628 25.35 123.726 24.9883 122.14 24.265C120.576 23.5417 119.351 22.48 118.465 21.08C117.601 19.68 117.123 17.9417 117.03 15.865C117.006 14.9083 116.995 13.8817 116.995 12.785C116.995 11.6883 117.006 10.6383 117.03 9.635C117.123 7.605 117.613 5.89 118.5 4.49C119.386 3.06667 120.623 1.99333 122.21 1.27C123.796 0.523332 125.675 0.149999 127.845 0.149999C129.385 0.149999 130.808 0.348332 132.115 0.744999C133.421 1.11833 134.565 1.67833 135.545 2.425C136.525 3.14833 137.283 4.035 137.82 5.085C138.38 6.11167 138.671 7.27833 138.695 8.585C138.718 8.795 138.648 8.97 138.485 9.11C138.345 9.25 138.17 9.32 137.96 9.32H133.235C132.931 9.32 132.698 9.26167 132.535 9.145C132.371 9.005 132.231 8.76 132.115 8.41C131.788 7.17333 131.251 6.33333 130.505 5.89C129.781 5.42333 128.883 5.19 127.81 5.19C126.526 5.19 125.511 5.55167 124.765 6.275C124.018 6.975 123.61 8.15333 123.54 9.81C123.47 11.7233 123.47 13.6833 123.54 15.69C123.61 17.3467 124.018 18.5367 124.765 19.26C125.511 19.96 126.526 20.31 127.81 20.31C128.883 20.31 129.793 20.0767 130.54 19.61C131.286 19.1433 131.811 18.3033 132.115 17.09C132.208 16.74 132.336 16.5067 132.5 16.39C132.686 16.25 132.931 16.18 133.235 16.18H137.96C138.17 16.18 138.345 16.25 138.485 16.39C138.648 16.53 138.718 16.705 138.695 16.915C138.671 18.2217 138.38 19.4 137.82 20.45C137.283 21.4767 136.525 22.3633 135.545 23.11C134.565 23.8333 133.421 24.3933 132.115 24.79C130.808 25.1633 129.385 25.35 127.845 25.35Z" fill="white"/>
    <path d="M147.201 25C146.968 25 146.758 24.9183 146.571 24.755C146.408 24.5917 146.326 24.3817 146.326 24.125V1.375C146.326 1.11833 146.408 0.908332 146.571 0.744999C146.758 0.581665 146.968 0.499998 147.201 0.499998H150.981C151.354 0.499998 151.634 0.604998 151.821 0.814998C152.031 1.00167 152.159 1.15333 152.206 1.27L158.366 12.33L164.526 1.27C164.596 1.15333 164.713 1.00167 164.876 0.814998C165.063 0.604998 165.354 0.499998 165.751 0.499998H169.496C169.753 0.499998 169.963 0.581665 170.126 0.744999C170.313 0.908332 170.406 1.11833 170.406 1.375V24.125C170.406 24.3817 170.313 24.5917 170.126 24.755C169.963 24.9183 169.753 25 169.496 25H165.331C165.074 25 164.853 24.9183 164.666 24.755C164.503 24.5917 164.421 24.3817 164.421 24.125V11L160.466 18.315C160.373 18.525 160.233 18.7117 160.046 18.875C159.859 19.0383 159.603 19.12 159.276 19.12H157.456C157.129 19.12 156.873 19.0383 156.686 18.875C156.499 18.7117 156.348 18.525 156.231 18.315L152.276 11V24.125C152.276 24.3817 152.194 24.5917 152.031 24.755C151.868 24.9183 151.658 25 151.401 25H147.201ZM183.536 25.35C181.39 25.35 179.523 25 177.936 24.3C176.35 23.6 175.113 22.55 174.226 21.15C173.34 19.7267 172.85 17.9533 172.756 15.83C172.733 14.8267 172.721 13.8233 172.721 12.82C172.721 11.8167 172.733 10.8017 172.756 9.775C172.85 7.675 173.34 5.91333 174.226 4.49C175.136 3.04333 176.385 1.95833 177.971 1.235C179.558 0.511666 181.413 0.149999 183.536 0.149999C185.636 0.149999 187.48 0.511666 189.066 1.235C190.676 1.95833 191.936 3.04333 192.846 4.49C193.756 5.91333 194.246 7.675 194.316 9.775C194.363 10.8017 194.386 11.8167 194.386 12.82C194.386 13.8233 194.363 14.8267 194.316 15.83C194.223 17.9533 193.733 19.7267 192.846 21.15C191.96 22.55 190.723 23.6 189.136 24.3C187.55 25 185.683 25.35 183.536 25.35ZM183.536 20.31C184.773 20.31 185.776 19.9367 186.546 19.19C187.34 18.4433 187.76 17.2533 187.806 15.62C187.853 14.5933 187.876 13.625 187.876 12.715C187.876 11.805 187.853 10.86 187.806 9.88C187.76 8.78333 187.55 7.89667 187.176 7.22C186.826 6.52 186.336 6.00667 185.706 5.68C185.076 5.35333 184.353 5.19 183.536 5.19C182.743 5.19 182.031 5.35333 181.401 5.68C180.771 6.00667 180.27 6.52 179.896 7.22C179.523 7.89667 179.313 8.78333 179.266 9.88C179.243 10.86 179.231 11.805 179.231 12.715C179.231 13.625 179.243 14.5933 179.266 15.62C179.336 17.2533 179.756 18.4433 180.526 19.19C181.296 19.9367 182.3 20.31 183.536 20.31ZM197.568 25C197.311 25 197.101 24.9183 196.938 24.755C196.775 24.5917 196.693 24.3817 196.693 24.125V1.375C196.693 1.11833 196.775 0.908332 196.938 0.744999C197.101 0.581665 197.311 0.499998 197.568 0.499998H201.278C201.675 0.499998 201.955 0.593332 202.118 0.779999C202.305 0.943332 202.421 1.07166 202.468 1.165L211.008 14.64V1.375C211.008 1.11833 211.09 0.908332 211.253 0.744999C211.416 0.581665 211.626 0.499998 211.883 0.499998H216.083C216.34 0.499998 216.55 0.581665 216.713 0.744999C216.876 0.908332 216.958 1.11833 216.958 1.375V24.125C216.958 24.3583 216.876 24.5683 216.713 24.755C216.55 24.9183 216.34 25 216.083 25H212.338C211.965 25 211.685 24.9067 211.498 24.72C211.335 24.5333 211.23 24.405 211.183 24.335L202.643 11.385V24.125C202.643 24.3817 202.561 24.5917 202.398 24.755C202.235 24.9183 202.025 25 201.768 25H197.568ZM220.974 25C220.718 25 220.508 24.9183 220.344 24.755C220.181 24.5917 220.099 24.3817 220.099 24.125V1.375C220.099 1.11833 220.181 0.908332 220.344 0.744999C220.508 0.581665 220.718 0.499998 220.974 0.499998H237.319C237.576 0.499998 237.786 0.581665 237.949 0.744999C238.113 0.908332 238.194 1.11833 238.194 1.375V4.665C238.194 4.92167 238.113 5.13167 237.949 5.295C237.786 5.45833 237.576 5.54 237.319 5.54H226.154V10.265H236.549C236.806 10.265 237.016 10.3583 237.179 10.545C237.343 10.7083 237.424 10.9183 237.424 11.175V14.22C237.424 14.4533 237.343 14.6633 237.179 14.85C237.016 15.0133 236.806 15.095 236.549 15.095H226.154V19.96H237.599C237.856 19.96 238.066 20.0417 238.229 20.205C238.393 20.3683 238.474 20.5783 238.474 20.835V24.125C238.474 24.3817 238.393 24.5917 238.229 24.755C238.066 24.9183 237.856 25 237.599 25H220.974ZM247.878 25C247.645 25 247.435 24.9183 247.248 24.755C247.085 24.5917 247.003 24.3817 247.003 24.125V16.6L238.883 1.62C238.86 1.55 238.836 1.49167 238.813 1.445C238.79 1.375 238.778 1.305 238.778 1.235C238.778 1.04833 238.848 0.884999 238.988 0.744999C239.151 0.581665 239.338 0.499998 239.548 0.499998H243.923C244.273 0.499998 244.541 0.593332 244.728 0.779999C244.938 0.943332 245.066 1.095 245.113 1.235L250.153 10.265L255.193 1.235C255.263 1.095 255.391 0.943332 255.578 0.779999C255.788 0.593332 256.068 0.499998 256.418 0.499998H260.793C261.003 0.499998 261.178 0.581665 261.318 0.744999C261.458 0.884999 261.528 1.04833 261.528 1.235C261.528 1.305 261.516 1.375 261.493 1.445C261.493 1.49167 261.481 1.55 261.458 1.62L253.303 16.6V24.125C253.303 24.3817 253.221 24.5917 253.058 24.755C252.895 24.9183 252.685 25 252.428 25H247.878Z" fill="#FF740F"/>
</svg>
